<svg width="25" height="25" viewBox="0 0 25 25" fill="none" xmlns="http://www.w3.org/2000/svg">
<path d="M8.20074 2.95874L4.48874 9.45474H3.06874C2.91504 9.45491 2.76344 9.49047 2.6257 9.55867C2.48795 9.62687 2.36776 9.72588 2.27445 9.84801C2.18113 9.97014 2.11719 10.1121 2.08759 10.263C2.05799 10.4138 2.06351 10.5694 2.10374 10.7177L4.90274 20.9807C5.01876 21.4038 5.2704 21.7771 5.61904 22.0434C5.96768 22.3097 6.39406 22.4542 6.83274 22.4547H17.3057C18.2037 22.4547 18.9977 21.8497 19.2357 20.9797L22.0347 10.7167C22.0755 10.5683 22.0813 10.4125 22.0518 10.2615C22.0223 10.1105 21.9583 9.96832 21.8648 9.84613C21.7712 9.72393 21.6507 9.62503 21.5126 9.55713C21.3745 9.48924 21.2226 9.45419 21.0687 9.45474H19.6487L15.9367 2.95874L14.2007 3.95074L17.3457 9.45474H6.79174L9.93674 3.95074L8.20074 2.95874ZM14.0687 13.4547H16.0687V18.4547H14.0687V13.4547ZM8.06874 13.4547H10.0687V18.4547H8.06874V13.4547Z" fill="#F9F1D9"/>
</svg>
