<svg width="21" height="17" viewBox="0 0 21 17" fill="none" xmlns="http://www.w3.org/2000/svg">
<path id="Vector" d="M18.0762 0.954712H2.07617C0.976172 0.954712 0.0861719 1.85471 0.0861719 2.95471L0.0761719 14.9547C0.0761719 16.0547 0.976172 16.9547 2.07617 16.9547H18.0762C19.1762 16.9547 20.0762 16.0547 20.0762 14.9547V2.95471C20.0762 1.85471 19.1762 0.954712 18.0762 0.954712ZM17.6762 5.20471L10.6062 9.62471C10.2862 9.82471 9.86617 9.82471 9.54617 9.62471L2.47617 5.20471C2.3759 5.14842 2.28809 5.07237 2.21806 4.98117C2.14803 4.88996 2.09723 4.78549 2.06875 4.67408C2.04026 4.56268 2.03467 4.44665 2.05233 4.33302C2.06998 4.21939 2.11051 4.11053 2.17145 4.01301C2.2324 3.9155 2.3125 3.83137 2.4069 3.76571C2.5013 3.70005 2.60804 3.65422 2.72067 3.63101C2.83329 3.6078 2.94946 3.60768 3.06213 3.63066C3.1748 3.65364 3.28164 3.69925 3.37617 3.76471L10.0762 7.95471L16.7762 3.76471C16.8707 3.69925 16.9775 3.65364 17.0902 3.63066C17.2029 3.60768 17.3191 3.6078 17.4317 3.63101C17.5443 3.65422 17.651 3.70005 17.7454 3.76571C17.8398 3.83137 17.9199 3.9155 17.9809 4.01301C18.0418 4.11053 18.0824 4.21939 18.1 4.33302C18.1177 4.44665 18.1121 4.56268 18.0836 4.67408C18.0551 4.78549 18.0043 4.88996 17.9343 4.98117C17.8643 5.07237 17.7764 5.14842 17.6762 5.20471Z" fill="#C6542D"/>
</svg>
