<svg width="27" height="27" viewBox="0 0 27 27" fill="none" xmlns="http://www.w3.org/2000/svg">
<path d="M13.068 4.78802C14.2173 4.78802 15.3195 5.24457 16.1322 6.05723C16.9448 6.86989 17.4014 7.97209 17.4014 9.12136C17.4014 10.2706 16.9448 11.3728 16.1322 12.1855C15.3195 12.9981 14.2173 13.4547 13.068 13.4547C11.9188 13.4547 10.8166 12.9981 10.0039 12.1855C9.19125 11.3728 8.7347 10.2706 8.7347 9.12136C8.7347 7.97209 9.19125 6.86989 10.0039 6.05723C10.8166 5.24457 11.9188 4.78802 13.068 4.78802ZM13.068 15.6214C17.8564 15.6214 21.7347 17.5605 21.7347 19.9547V22.1214H4.40137V19.9547C4.40137 17.5605 8.2797 15.6214 13.068 15.6214Z" fill="#F9F1D9"/>
</svg>
