<svg width="27" height="27" viewBox="0 0 27 27" fill="none" xmlns="http://www.w3.org/2000/svg">
<g id="mdi:map-marker">
<path id="Vector" d="M13.0316 12.9131C12.3133 12.9131 11.6244 12.6277 11.1165 12.1198C10.6086 11.6119 10.3232 10.923 10.3232 10.2047C10.3232 9.48644 10.6086 8.79756 11.1165 8.28965C11.6244 7.78174 12.3133 7.4964 13.0316 7.4964C13.7499 7.4964 14.4387 7.78174 14.9467 8.28965C15.4546 8.79756 15.7399 9.48644 15.7399 10.2047C15.7399 10.5604 15.6699 10.9126 15.5337 11.2412C15.3976 11.5698 15.1981 11.8683 14.9467 12.1198C14.6952 12.3713 14.3966 12.5708 14.068 12.7069C13.7394 12.843 13.3872 12.9131 13.0316 12.9131ZM13.0316 2.6214C11.0204 2.6214 9.0915 3.42035 7.66935 4.84251C6.2472 6.26466 5.44824 8.19351 5.44824 10.2047C5.44824 15.8922 13.0316 24.2881 13.0316 24.2881C13.0316 24.2881 20.6149 15.8922 20.6149 10.2047C20.6149 8.19351 19.816 6.26466 18.3938 4.84251C16.9717 3.42035 15.0428 2.6214 13.0316 2.6214Z" fill="#FAE7BF"/>
</g>
</svg>
