<svg width="19" height="19" viewBox="0 0 19 19" fill="none" xmlns="http://www.w3.org/2000/svg">
<path d="M18.0832 17.7881L16.4165 16.1214M9.33317 16.9547C10.3728 16.9547 11.4023 16.75 12.3627 16.3521C13.3232 15.9543 14.196 15.3711 14.9311 14.636C15.6662 13.9009 16.2494 13.0281 16.6472 12.0676C17.0451 11.1071 17.2498 10.0777 17.2498 9.03807C17.2498 7.99843 17.0451 6.96898 16.6472 6.00849C16.2494 5.04799 15.6662 4.17527 14.9311 3.44014C14.196 2.70501 13.3232 2.12187 12.3627 1.72402C11.4023 1.32617 10.3728 1.1214 9.33317 1.1214C7.23354 1.1214 5.2199 1.95547 3.73524 3.44014C2.25058 4.9248 1.4165 6.93844 1.4165 9.03807C1.4165 11.1377 2.25058 13.1513 3.73524 14.636C5.2199 16.1207 7.23354 16.9547 9.33317 16.9547Z" stroke="white" stroke-width="1.5" stroke-linecap="round" stroke-linejoin="round"/>
</svg>
