<svg width="21" height="21" viewBox="0 0 21 21" fill="none" xmlns="http://www.w3.org/2000/svg">
<path id="Vector" d="M19.0833 20.4547C16.7685 20.4547 14.4815 19.9499 12.2222 18.9403C9.96296 17.9306 7.90741 16.5003 6.05556 14.6492C4.2037 12.7973 2.77333 10.7417 1.76444 8.48249C0.755556 6.22323 0.250741 3.93619 0.25 1.62138C0.25 1.28805 0.361111 1.01027 0.583333 0.788045C0.805556 0.565823 1.08333 0.454712 1.41667 0.454712H5.91667C6.17593 0.454712 6.40741 0.54286 6.61111 0.719156C6.81482 0.895453 6.93519 1.1036 6.97222 1.3436L7.69444 5.23249C7.73148 5.52879 7.72222 5.77879 7.66667 5.98249C7.61111 6.18619 7.50926 6.36212 7.36111 6.51027L4.66667 9.23249C5.03704 9.91768 5.47667 10.5795 5.98556 11.218C6.49444 11.8566 7.05481 12.4725 7.66667 13.0658C8.24074 13.6399 8.84259 14.1725 9.47222 14.6636C10.1019 15.1547 10.7685 15.6036 11.4722 16.0103L14.0833 13.3992C14.25 13.2325 14.4678 13.1073 14.7367 13.0236C15.0056 12.9399 15.2693 12.9169 15.5278 12.9547L19.3611 13.7325C19.6204 13.8066 19.8333 13.941 20 14.1358C20.1667 14.3306 20.25 14.548 20.25 14.788V19.288C20.25 19.6214 20.1389 19.8992 19.9167 20.1214C19.6944 20.3436 19.4167 20.4547 19.0833 20.4547Z" fill="#C6542D"/>
</svg>
